/* XPM */
static char *_61de1d447d0465590d7708c31998b66qPOzSYubgN5VIUMj[] = {
/* columns rows colors chars-per-pixel */
"32 32 12 1 ",
"  c None",
". c black",
"X c #28221F",
"o c #3A3B3D",
"O c #413325",
"+ c #63492C",
"@ c #6F4E2C",
"# c #5F6367",
"$ c #866440",
"% c #869598",
"& c #ACC2C3",
"* c #D4EDED",
/* pixels */
"                                ",
"                                ",
"                                ",
"                     .          ",
"                    .#.         ",
"                    .#.         ",
"                    .$.         ",
"             .****. .#.         ",
"             *&&&%% .#.         ",
"             &&&%%% .@.         ",
"             #%%%%#..@..        ",
"             ##%%###.o..        ",
"         .#. ..##.. ...         ",
"         .##..O..O..##.         ",
"           .%++++++%.           ",
"            .O++++O.            ",
"             .++++.             ",
"             .++O+.             ",
"             .XXOX.             ",
"             ...X.              ",
"             %%o%.              ",
"             %#.o.              ",
"             .. ..              ",
"                ..              ",
"                ..              ",
"                ..              ",
"                                ",
"                                ",
"                                ",
"                                ",
"                                ",
"                                "
};
