/* XPM */
static char *e4a35f5ade9042c4f6138455933af74c4JEuXgYzkKnelGqE[] = {
/* columns rows colors chars-per-pixel */
"32 32 12 1 ",
"  c None",
". c #141412",
"X c #242A36",
"o c #551A1C",
"O c #4B3720",
"+ c #3B535E",
"@ c #AE3838",
"# c #825E3A",
"$ c #BD9168",
"% c #5C8EA5",
"& c #ECCBAC",
"* c #8AC6E0",
/* pixels */
"                                ",
"                                ",
"                                ",
"                                ",
"                                ",
"                                ",
"                                ",
"                                ",
"             .......            ",
"            .$&&&&&&&.          ",
"           .#$&&&&&&&&          ",
"          .##$$&&&&&&&          ",
"          .######..$..          ",
"          .O#####..&..          ",
"          .O##O##.O&O.          ",
"            .#.#$&&.$$          ",
"             ...OO$$#.          ",
"             @@.O....o          ",
"            ..@@%$$$$o.         ",
"          .**%%X%%%**++.        ",
"          .%***X+%%**++.        ",
"         .%....XX%%**+..        ",
"           ...........          ",
"             ....O..            ",
"             +@+...o.           ",
"             X+++.#XX.          ",
"             .%%%O.++.          ",
"              ...#...           ",
"             ####$....          ",
"             ####.....          ",
"             .... ...           ",
"                  ....          "
};
