/* XPM */
static char *ca4130605b5b4a16f7d249d7ef7ff547ZhvJtSq6Gnkjj3pe[] = {
/* columns rows colors chars-per-pixel */
"32 32 13 1 ",
"  c None",
". c black",
"X c #28221F",
"o c #3A3B3D",
"O c #7D211D",
"+ c #413325",
"@ c #63492C",
"# c #6F4E2C",
"$ c #5F6367",
"% c #866440",
"& c #869598",
"* c #ACC2C3",
"= c #D4EDED",
/* pixels */
"                                ",
"                                ",
"                                ",
"                                ",
"                                ",
"                                ",
"                                ",
"                                ",
"              ....              ",
"              ====.             ",
"             .**&&&.            ",
"             .==&*&.            ",
"             .OO&O&.            ",
"              &&X&.             ",
"     ..       .$$$              ",
"     .&.      +....             ",
"      .&&.   .@@@@@.            ",
"       %&%   ..@@@*.            ",
"        .#&..$@@+@.$            ",
"         .%$.&@+&+.&.           ",
"         .o.&.X+XX..$.          ",
"         ...$..X.. .$.          ",
"              .o&o              ",
"              .&o&              ",
"              $&.&.             ",
"              &. ..             ",
"             .&. .&.            ",
"             ... ...            ",
"                                ",
"                                ",
"                                ",
"                                "
};
