/* XPM */
static char *fde9cd0f6d184697f12d7633bb87438cK8wxxl6kFYdA7RX1[] = {
/* columns rows colors chars-per-pixel */
"32 32 13 1 ",
"  c None",
". c black",
"X c #28221F",
"o c #3A3B3D",
"O c #7D211D",
"+ c #413325",
"@ c #63492C",
"# c #6F4E2C",
"$ c #5F6367",
"% c #866440",
"& c #869598",
"* c #ACC2C3",
"= c #D4EDED",
/* pixels */
"                                ",
"                                ",
"                                ",
"                                ",
"                                ",
"                                ",
"                                ",
"                                ",
"              ....              ",
"              ====.             ",
"             .*****.            ",
"             .=*=*&.            ",
"             .O&O&.             ",
"              &X&..             ",
"      ..      .$.o              ",
"      .&.     +.o+.             ",
"       %&&   .@@@@@@            ",
"       .%&.  .@@@@.*            ",
"         .%&$.+++@...           ",
"          #%$.+&++..$.          ",
"          oo&...X+. &$          ",
"          ..$..o.X. $$          ",
"              .$&&.             ",
"              $&.o.             ",
"              o. .$.            ",
"             .&.  &.            ",
"             .&.  &&            ",
"                  ..            ",
"                                ",
"                                ",
"                                ",
"                                "
};
