/* XPM */
static char *bb6b1f1651804e90a72ffc1f07202092jsS0HRKkDnubbCzR[] = {
/* columns rows colors chars-per-pixel */
"32 32 13 1 ",
"  c None",
". c black",
"X c #28221F",
"o c #3A3B3D",
"O c #7D211D",
"+ c #413325",
"@ c #63492C",
"# c #6F4E2C",
"$ c #5F6367",
"% c #866440",
"& c #869598",
"* c #ACC2C3",
"= c #D4EDED",
/* pixels */
"                                ",
"                                ",
"                                ",
"                                ",
"                                ",
"                                ",
"                                ",
"                                ",
"               ....             ",
"              .====.            ",
"              ****&&            ",
"              **==**            ",
"              ..OOOO            ",
"              ..&&&.            ",
"               ....             ",
"              ...&..            ",
"             .@.&%@@            ",
"             ..%%.@.            ",
"            $.%#+o+..           ",
"            $$#.+++.$.          ",
"           .&.o.XX. &$          ",
"           .$...... $$          ",
"              .o&&.             ",
"              .&..$.            ",
"              $&  o.            ",
"              &.  &&            ",
"             .&.  &&            ",
"             ...                ",
"                                ",
"                                ",
"                                ",
"                                "
};
