/* XPM */
static char *_7409692bcb54cfc9e8d0308dd68c90aHrOocaChNyeIAj3K[] = {
/* columns rows colors chars-per-pixel */
"32 32 10 1 ",
"  c #141412",
". c #201611",
"X c #2E1E16",
"o c #392A1E",
"O c #433326",
"+ c #4B3720",
"@ c #825E3A",
"# c #BD9168",
"$ c #1660A5",
"% c #ECCBAC",
/* pixels */
"................................",
"...XXXXXXXXXXXXXXXXXXXXXXXXXXX..",
"................................",
".XXoooooooooooooooooooooooooooXX",
".XXoOOOOOOO@$% OOOOOOOOOOOOOOOXX",
"...XXXXXXX@%@@ XXXXXXXXXXXXXXX..",
".XXoOOOOOO@%%@OOOOOOOOOOOOOOOOXX",
".XXoOOOOOOO+@+OOOOOOOOOOOOOOOOXX",
".XXoOOOOOOOO#+OOOOOOOOOOOOOOOOXX",
".XXoOOOOOOOO#+OOOOOOOOOOOOOOOOXX",
"...XXooooooo#+ooooooooooooooXX..",
".XXoOOOOOOOO#+ooooooOOOOOOOOOOXX",
".XXoOOOOOOOO#+ooooooOOOOOOOOOOXX",
"...XXooooooX#+XXXXXXXXooooooXX..",
".XXoOOOOOOOO@ OooooooOOOOOOOOOXX",
".XXoOOOOOOOO@ OooooooOOOOOOOOOXX",
"...XXooooooX@ XXXXXXXXooooooXX..",
".XXoOOOOOOOO@ ooooOOOOOOOOOOOOXX",
".XXoOOOOOOOO# ooooOOOOOOOOOOOOXX",
".XXoOOOOOOO+%#OoooooOOOOOOOOOOXX",
".XXoOOOOOOO%@#OoooooOOOOOOOOOOXX",
"...XXooooooXXXXXXXXXXXooooooXX..",
".XXoOOOOOOOOOOOOOOOOOOOOOOOOOOXX",
".XXoOOOOOOOOOOOOOOOOOOOOOOOOOOXX",
"...XXoooooooooooooooooooooooXX..",
".XXoOOOOOOOOOOOOOOOOOOOOOOOOOOXX",
".XXoOOOOOOOOOOOOOOOOOOOOOOOOOOXX",
".XXoOOOOOOOOOOOOOOOOOOOOOOOOOOXX",
".XXoOOOOOOOOOOOOOOOOOOOOOOOOOOXX",
".XXoOOOOOOOOOOOOOOOOOOOOOOOOOOXX",
"...XXoooooooooooooooooooooooXX..",
"...XXoooooooooooooooooooooooXX.."
};
