/* XPM */
static char *_97aef95ab1144d7cb2d2c0f96869f9dNqMUUMlaVeOcdA93[] = {
/* columns rows colors chars-per-pixel */
"32 32 7 1 ",
"  c None",
". c #141412",
"X c #4B3720",
"o c #825E3A",
"O c #BD9168",
"+ c #1660A5",
"@ c #ECCBAC",
/* pixels */
"                                ",
"                                ",
"                                ",
"                                ",
"               XXX              ",
"              o++O.             ",
"             @@oo@.             ",
"             @@@@@.             ",
"              Xoo               ",
"              Xoo               ",
"               OO               ",
"               OO               ",
"               OO               ",
"               OO               ",
"               OO               ",
"               OO               ",
"               OO               ",
"               oo               ",
"               oo               ",
"               oo               ",
"               oo               ",
"               oo               ",
"               OO               ",
"               OO               ",
"              X@@               ",
"             o@@@.              ",
"              XXX               ",
"                                ",
"                                ",
"                                ",
"                                ",
"                                "
};
