/* XPM */
static char *_ae6ba80a4b746a5c8c1cbaaa57f4a49QwDWtFd9NY5nsuww[] = {
/* columns rows colors chars-per-pixel */
"32 32 4 1 ",
"  c #201611",
". c #2E1E16",
"X c #392A1E",
"o c #433326",
/* pixels */
"                                ",
"   ...........................  ",
"                                ",
" ..XXXXXXXXXXXXXXXXXXXXXXXXXXX..",
" ..Xoooooooooooooooooooooooooo..",
"   ...........................  ",
" ..Xoooooooooooooooooooooooooo..",
" ..Xoooooooooooooooooooooooooo..",
" ..Xoooooooooooooooooooooooooo..",
" ..Xoooooooooooooooooooooooooo..",
"   ..XXXXXXXXXXXXXXXXXXXXXXX..  ",
" ..XoooooooooXXXXXXXoooooooooo..",
" ..XoooooooooXXXXXXXoooooooooo..",
"   ..XXXXXX...........XXXXXX..  ",
" ..XoooooooooXoXXXXXXooooooooo..",
" ..XoooooooooXoXXXXXXooooooooo..",
"   ..XXXXXX...........XXXXXX..  ",
" ..XoooooooooXXXXXoooooooooooo..",
" ..XoooooooooXXXXXoooooooooooo..",
" ..XoooooooooXoXXXXXoooooooooo..",
" ..XoooooooooXoXXXXXoooooooooo..",
"   ..XXXXXX...........XXXXXX..  ",
" ..Xoooooooooooooooooooooooooo..",
" ..Xoooooooooooooooooooooooooo..",
"   ..XXXXXXXXXXXXXXXXXXXXXXX..  ",
" ..Xoooooooooooooooooooooooooo..",
" ..Xoooooooooooooooooooooooooo..",
" ..Xoooooooooooooooooooooooooo..",
" ..Xoooooooooooooooooooooooooo..",
" ..Xoooooooooooooooooooooooooo..",
"   ..XXXXXXXXXXXXXXXXXXXXXXX..  ",
"   ..XXXXXXXXXXXXXXXXXXXXXXX..  "
};
