/* XPM */
static char *_8463e80c6b94fc7f53770c445d0a20bw8MqvL53A3v6fpif[] = {
/* columns rows colors chars-per-pixel */
"32 32 11 1 ",
"  c #0F1A1B",
". c #141412",
"X c #281818",
"o c #162527",
"O c #332520",
"+ c #242A36",
"@ c #523D2A",
"# c #6E4B2C",
"$ c #3B535E",
"% c #5C8EA5",
"& c #8AC6E0",
/* pixels */
"X................OOOOOOOOOOOOOOO",
" ##O#########################O##",
" ##O#########################O##",
" OOO.........................OOO",
"o##...........................@@",
"o##.XX........................@@",
"o@@.XX........................@@",
"o##.XX........................@@",
"o@@.XX........................@@",
".%%$&X........................@@",
".%%$&X........................@@",
".%%$&X........................%%",
" OO.XX........................%%",
" @@.XX........................&&",
" @@.XX+.......................&&",
" @@.XX+......................%&&",
" @@.XX.......................&&&",
".@@.XX.......................&&&",
".@@.XX+......................%&&",
".@@.XX+.......................&&",
".@@.XX........................&&",
".@@.XX........................%%",
".%%$&X........................%%",
".%%$&X........................OO",
".%%$&X........................@@",
".OO.XX........................@@",
".@@.XX........................@@",
".@@.XX........................@@",
".@@.XX........................@@",
".OOO.........................OOO",
".##O#########@#@#@@@@@@@@@@@@O@@",
".##O#########@#@#@@@@@@@@@@@@O@@"
};
