/* XPM */
static char *_6ac3383dd284d2f8508af5b1f842b81VG3H3yDZKVbvtFXW[] = {
/* columns rows colors chars-per-pixel */
"32 32 4 1 ",
"  c #0F1A1B",
". c #162527",
"X c #1D2E30",
"o c #243A3C",
/* pixels */
"......X... .. .  ..... ..  . ...",
".XXXXXXXXX XXXXX XXXXX XXXXX ...",
".XXXXXXXXX.XXXXX.XXXXX.XXXXX ...",
"XXXXXXXXXX.XXXXX.XXXXX.XXXXX ...",
"  ........................      ",
".XXXoooooo.XXXXX.oooooXooooo XXX",
"XXXXoooooo.ooooo.oooooXooooo XXX",
".XXXooooooXoooooXoooooXooooo.XXX",
".XXXooooooXoooooXoooooXooooo.XXX",
".XXXooooooXoooooXoooooXooooo.XXX",
"  ...XXXXXXXXXXXXXXXXXXXXXXX....",
" XXXXoooooXoooooXoooooXooooo.XXX",
".XXXXoooooXoooooXoooooXooooo.XXX",
".XXXXoooooXoooooXoooooXooooo.XXX",
".XXXXoooooXoooooXoooooXooooo XXX",
".XXXXoooooXoooooXoooooXooooo XXX",
".XXXooooooXoooooXoooooXooooo XXX",
".XXXooooooXoooooXoooooXooooo.XXX",
".XXXooooooXoooooXoooooXooooo.XXX",
".XXXooooooXoooooXoooooXooooo.XXX",
".XXXooooooXoooooXoooooXooooo.XXX",
"  ...XXXXXXXXXXXXXXXXXXXXXXX....",
" XXXXoooooXoooooXoooooXooooo.XXX",
".XXXXoooooXoooooXoooooXooooo.XXX",
" XXXXoooooXoooooXoooooXooooo.XXX",
".XXXXoooooXoooooXoooooXooooo XXX",
".XXXXoooooXoooooXoooooXooooo XXX",
".XXXooooooXoooooXoooooXooooo XXX",
".XXXooooooXoooooXoooooXooooo.XXX",
" ...XXXXXX.XXXXX.XXXXX.XXXXX ...",
" ...XXXXXX.XXXXX.XXXXX.XXXXX ...",
" ...XXXXXX.XXXXX.XXXXX.XXXXX ..."
};
